:SAMPLES-PER-SECOND 30
:FULLY-SPECIFIED
:DEGREES
480
root  -37.8989 41.0195 1.65103 -163.843 -66.6975 176.671
RightUpLeg  -4.67947 -17.8071 -5.10736
RightLeg  11.3161 10.0873 1.34719
RightFoot  38.6782 -2.12998 6.54474
RightToes  -42.449 -0.238337 -0.328534
Spine  -6.30528 1.82588 -1.08272
Spine1  -12.5417 3.76221 -1.5469
HEad  -96.3999 2.40252 12.5763
LeftShoulder1  -1.94126e-019 -3.10601e-018 -2.51263e-017
LeftArm  -68.073 -63.268 8.70397
LeftForeArm  49.8111 -75.2822 -40.923
LeftHand  -0.750552 -1.22524 13.3106
RightShoulder  -4.96962e-017 0 -2.36833e-017
RightArm  -87.1088 65.0651 -29.0429
RightForeArm  49.4836 52.8319 10.8673
RightHand  -0.629954 -1.07738 -16.8786
LeftUpLeg  -14.6096 6.25218 0.869911
LeftLeg  9.6453 -0.557376 -0.0595934
LeftFoot  33.07 0.0769459 -0.0976772
LeftToes  -43.9896 1.70063e-006 7.6642e-008
481
root  -38.4847 42.261 1.47268 -164.69 -69.8428 175.545
RightUpLeg  -1.9194 -21.3334 -6.0507
RightLeg  15.9866 14.0841 3.04149
RightFoot  39.4224 -3.22869 9.45204
RightToes  -44.9771 -0.259413 -0.341477
Spine  -6.29654 1.89632 -1.40422
Spine1  -12.6417 3.85855 -2.16827
HEad  -102.466 1.83623 8.33476
LeftShoulder1  -1.94126e-019 -3.10601e-018 -2.51263e-017
LeftArm  -83.3088 -60.963 23.2131
LeftForeArm  45.9195 -73.0913 -33.7483
LeftHand  -0.867643 -1.71959 14.3192
RightShoulder  -4.96962e-017 0 -2.36833e-017
RightArm  -101.735 61.187 -47.3102
RightForeArm  49.8501 48.1373 8.8703
RightHand  -0.569926 -1.72691 -17.9067
LeftUpLeg  -11.1817 6.94045 1.48322
LeftLeg  12.7653 1.32244 0.209588
LeftFoot  33.8556 -0.241143 0.953814
LeftToes  -42.6383 1.70063e-006 7.6642e-008
482
root  -38.9023 43.1068 1.29279 -166.571 -72.2862 176.198
RightUpLeg  0.0591892 -21.8426 -6.04153
RightLeg  18.2403 14.0346 3.60617
RightFoot  40.3577 -3.39302 9.67135
RightToes  -44.0031 -0.251226 -0.336601
Spine  -6.26401 2.23021 -1.79367
Spine1  -12.6316 4.44792 -2.95657
HEad  -106.958 0.589621 6.05001
LeftShoulder1  -1.94126e-019 -3.10601e-018 -2.51263e-017
LeftArm  -99.0455 -58.7473 36.34
LeftForeArm  40.3806 -68.1368 -24.2948
LeftHand  -0.905973 -1.97134 14.4472
RightShoulder  -4.96962e-017 0 -2.36833e-017
RightArm  -113.416 56.2269 -58.3627
RightForeArm  52.7826 43.8229 7.20136
RightHand  -0.792926 0.564501 -15.5125
LeftUpLeg  -9.2593 8.67697 3.26752
LeftLeg  17.633 -0.050477 -0.015085
LeftFoot  33.4843 -0.00312228 0.171887
LeftToes  -39.6362 1.70063e-006 7.6642e-008
483
root  -39.2911 43.563 1.12449 -166.628 -74.721 175.934
RightUpLeg  1.42991 -20.8479 -5.72411
RightLeg  16.577 12.7549 2.89589
RightFoot  41.8595 -3.24335 8.93177
RightToes  -43.0037 -0.242911 -0.331453
Spine  -6.5667 2.35142 -2.53419
Spine1  -13.2325 4.51764 -4.43886
HEad  -108.57 -0.753437 5.73214
LeftShoulder1  -1.94126e-019 -3.10601e-018 -2.51263e-017
LeftArm  -112.663 -55.7331 47.6013
LeftForeArm  34.7905 -61.1266 -17.2051
LeftHand  -0.810432 -1.35009 14.0976
RightShoulder  -4.96962e-017 0 -2.36833e-017
RightArm  -122.669 51.9069 -63.4814
RightForeArm  53.1072 41.6178 6.49526
RightHand  -0.590538 -0.616873 -14.3438
LeftUpLeg  -8.22721 10.0894 5.20799
LeftLeg  21.3444 -2.53108 -0.808755
LeftFoot  35.105 0.476931 -1.34623
LeftToes  -37.6327 1.70063e-006 7.6642e-008
484
root  -39.6296 43.5979 1.03616 -163.751 -76.9483 172.798
RightUpLeg  2.53985 -17.5911 -5.78054
RightLeg  12.7397 10.7109 1.69945
RightFoot  40.0035 -2.40725 7.08456
RightToes  -41.7274 -0.232427 -0.324671
Spine  -6.94561 2.12743 -3.36962
Spine1  -13.9139 3.90228 -6.04703
HEad  -107.516 -1.46527 5.54686
LeftShoulder1  -1.94126e-019 -3.10601e-018 -2.51263e-017
LeftArm  -119.179 -50.9677 53.7737
LeftForeArm  29.135 -53.8331 -12.9289
LeftHand  -0.593724 0.51134 14.1601
RightShoulder  -4.96962e-017 0 -2.36833e-017
RightArm  -130.675 49.1744 -67.2545
RightForeArm  52.0885 39.8598 6.02851
RightHand  -0.595442 -0.855561 -15.1988
LeftUpLeg  -6.86341 9.60065 6.52697
LeftLeg  22.0745 -3.82986 -1.27555
LeftFoot  37.3546 0.825 -2.27872
LeftToes  -36.9973 1.70063e-006 7.6642e-008
485
root  -39.873 43.2073 1.01467 -160.981 -79.1931 169.624
RightUpLeg  2.99448 -15.0846 -6.04132
RightLeg  9.5943 8.76611 0.906291
RightFoot  38.4593 -1.76439 5.54465
RightToes  -40.7891 -0.224817 -0.319536
Spine  -7.18124 1.75896 -3.82256
Spine1  -14.2598 3.06072 -6.84235
HEad  -105.666 -1.97576 4.07592
LeftShoulder1  -1.94126e-019 -3.10601e-018 -2.51263e-017
LeftArm  -120.613 -45.5799 55.7192
LeftForeArm  26.0382 -47.3283 -10.1857
LeftHand  -0.444632 1.5908 13.511
RightShoulder  -4.96962e-017 0 -2.36833e-017
RightArm  -137.859 47.3675 -70.9267
RightForeArm  50.1503 38.6063 5.76834
RightHand  -0.29856 -3.68183 -19.7091
LeftUpLeg  -5.56327 7.52971 7.87792
LeftLeg  21.423 -3.16772 -1.01597
LeftFoot  36.1373 0.635235 -1.78545
LeftToes  -37.3796 1.70063e-006 7.6642e-008
486
root  -39.9945 42.403 1.04614 -158.416 -81.3414 166.726
RightUpLeg  2.87318 -13.9028 -6.50026
RightLeg  6.74516 7.89414 0.423024
RightFoot  37.7307 -1.49501 4.86797
RightToes  -39.8207 -0.217053 -0.314107
Spine  -7.14184 1.5019 -4.02854
Spine1  -14.0152 2.46067 -7.10732
HEad  -103.925 -3.57258 2.25155
LeftShoulder1  -1.94126e-019 -3.10601e-018 -2.51263e-017
LeftArm  -119.686 -40.0761 54.7884
LeftForeArm  27.7083 -43.0581 -8.50746
LeftHand  -0.496718 1.0611 13.3047
RightShoulder  -4.96962e-017 0 -2.36833e-017
RightArm  -141.176 44.8591 -73.2942
RightForeArm  48.2531 40.366 6.3233
RightHand  -0.170596 -4.50945 -21.3579
LeftUpLeg  -4.90505 4.18796 9.19043
LeftLeg  20.4654 -1.53052 -0.46453
LeftFoot  34.1288 0.269052 -0.714988
LeftToes  -36.2773 1.70063e-006 7.6642e-008
487
root  -39.9866 41.1331 1.08073 -157.218 -83.5084 165.196
RightUpLeg  1.04962 -14.1227 -6.93232
RightLeg  6.30648 8.05106 0.369774
RightFoot  36.2166 -1.39757 4.76603
RightToes  -39.1047 -0.211371 -0.310009
Spine  -6.92461 1.49383 -4.20157
Spine1  -13.447 2.40215 -6.98675
HEad  -101.584 -5.61043 0.759505
LeftShoulder1  -1.94126e-019 -3.10601e-018 -2.51263e-017
LeftArm  -118.164 -35.8442 51.3132
LeftForeArm  30.7966 -41.8899 -7.91038
LeftHand  -0.559155 0.569246 13.4939
RightShoulder  -4.96962e-017 0 -2.36833e-017
RightArm  -140.444 42.1671 -73.024
RightForeArm  47.0671 45.6315 7.97339
RightHand  -0.17633 -4.41995 -19.9844
LeftUpLeg  -5.05937 0.716304 10.8258
LeftLeg  20.0964 -0.754707 -0.225247
LeftFoot  32.898 0.119152 -0.242063
LeftToes  -35.7469 1.70063e-006 7.6642e-008
